# xmcd
# 
# Track frame offsets:
#     150
#     16960
#     46232
#     60075
#     81997
#     106102
#     124197
#     144622
#     172792
#     190890
# 
# Disc length: 2782
# 
# Revision: 1
# Processed by: cddbd v1.5.2PL0 Copyright (c) Steve Scherf et al.
# Submitted via: fre:ac v1.0.17
# 
DISCID=760adc0a
DTITLE=Jane Monheit - Never Never Land
DYEAR=2000
DGENRE=Jazz
TTITLE0=Please Be Kind
TTITLE1=Detour Ahead
TTITLE2=More Than You Know
TTITLE3=Dindi
TTITLE4=Save Your Love for Me
TTITLE5=Never Let Me Go
TTITLE6=My Foolish Heart
TTITLE7=I Got It Bad (& That Ain't Good)
TTITLE8=Twisted
TTITLE9=Never Never Land
EXTD=YEAR: 2000
EXTT0=
EXTT1=
EXTT2=
EXTT3=
EXTT4=
EXTT5=
EXTT6=
EXTT7=
EXTT8=
EXTT9=
PLAYORDER=
